# xmcd
#
# Track frame offsets:
# 150
# 13775
# 28440
# 43673
# 58076
# 75480
#
# Disc length: 1232 seconds
#
# Revision: 0
# Processed by: cddbd v1.5.1PL0 Copyright (c) Steve Scherf et al.
# Submitted via: MacMP3 Pro 5.0 (http://mp3.act2.co.jp/)
#
DISCID=4904ce06
DTITLE=ÏnÔ"Í^ÌmÈq - ÏnÔ"Í^ÌmÈq…~…jBEST
DYEAR=1900
DGENRE=
TTITLE0=Òø«¢Ï<pi>
TTITLE1=«©«?«fl«(TM)??«“«ÊÏ?
TTITLE2=…u…„≈[
TTITLE3=«?«?«∂«OE≈c«?«?«∂«OE
TTITLE4=ÍO« ≈AÓM«!=ÂN«?ÂÕ«Õ
TTITLE5=…z≈[…„…h…~≈[…^…C…„
EXTD=
EXTT0=
EXTT1=
EXTT2=
EXTT3=
EXTT4=
EXTT5=
PLAYORDER=
